<svg width="185" height="218" viewBox="0 0 185 218" fill="none" xmlns="http://www.w3.org/2000/svg">
<g filter="url(#filter0_d_512_3249)">
<path d="M114.512 9.24491C130.618 12.5787 145.214 21.588 155.444 34.5066C181.693 67.6733 167.586 107.136 153.525 126.75C136.982 149.828 96.4219 161.91 81.8427 164.437C67.2757 166.963 65.5722 175.512 65.5722 175.512L47.4651 164.334L29.3579 153.156C29.3579 153.156 36.2078 147.781 31.9004 133.608C27.5923 119.423 20.097 77.6746 33.2058 52.4846C44.3476 31.0707 73.1515 0.672775 114.512 9.24491Z" fill="#F3FFB1"/>
<path d="M65.5722 175.512L53.0931 195.818C47.7848 204.458 36.5351 207.19 27.9782 201.902L22.7437 198.672C14.1869 193.384 11.5463 182.103 16.8539 173.452L29.333 153.145L65.5722 175.512Z" fill="#B1D000"/>
<path d="M21.0314 164.053L61.1622 185.922C62.0808 186.423 63.2303 186.082 63.7297 185.161L64.5818 183.59C65.0812 182.67 64.7414 181.517 63.8228 181.017L23.6919 159.148C22.7734 158.647 21.6239 158.988 21.1245 159.908L20.2724 161.479C19.773 162.4 20.1128 163.552 21.0314 164.053Z" fill="#5B9739"/>
<path d="M15.7411 174.224L54.2301 195.198C55.1487 195.699 56.2982 195.358 56.7976 194.437L57.6497 192.866C58.1491 191.946 57.8092 190.793 56.8907 190.293L18.4017 169.319C17.4831 168.818 16.3336 169.159 15.8342 170.079L14.9822 171.65C14.4827 172.571 14.8226 173.723 15.7411 174.224Z" fill="#5B9739"/>
<path d="M11.9906 184.675L47.5582 204.057C48.4768 204.558 49.6263 204.217 50.1257 203.296L50.9778 201.726C51.4772 200.805 51.1374 199.653 50.2188 199.152L14.6512 179.77C13.7326 179.269 12.5831 179.61 12.0837 180.53L11.2316 182.101C10.7322 183.022 11.072 184.174 11.9906 184.675Z" fill="#5B9739"/>
<path d="M58.4233 121.769C54.0769 110.632 42.3994 71.5031 80.3764 45.2257C81.805 44.2449 83.7645 44.7332 84.5194 46.2994C89.7949 57.0929 105.008 96.4271 62.5448 123.112C61.0414 124.06 59.0497 123.428 58.4112 121.77L58.4233 121.769Z" fill="#B1D000"/>
<path d="M47.4651 164.334C47.4651 164.334 57.1135 140.968 60.5957 121.271L82.2437 48.4479" stroke="#5B9739" stroke-width="0.5" stroke-miterlimit="10" stroke-linecap="round"/>
<path d="M84.7593 62.087C84.7593 62.087 76.0141 72.9761 73.2294 78.6737" stroke="#5B9739" stroke-width="0.5" stroke-miterlimit="10" stroke-linecap="round"/>
<path d="M65.9681 68.2341C65.9681 68.2341 71.6594 79.9548 69.3387 91.6327" stroke="#5B9739" stroke-width="0.5" stroke-miterlimit="10" stroke-linecap="round"/>
<path d="M85.3847 89.0368C85.3847 89.0368 71.9442 93.0353 66.0399 103.206" stroke="#5B9739" stroke-width="0.5" stroke-miterlimit="10" stroke-linecap="round"/>
<path d="M59.484 89.0364C59.484 89.0364 65.1753 100.757 62.8545 112.435" stroke="#5B9739" stroke-width="0.5" stroke-miterlimit="10" stroke-linecap="round"/>
<path d="M65.9012 129.529C71.8512 123.266 93.8958 103.622 122.689 120.567C123.769 121.201 124.044 122.648 123.258 123.617C117.811 130.389 96.7233 152.403 66.2923 132.65C65.2208 131.954 65.0165 130.455 65.9005 129.516L65.9012 129.529Z" fill="#B1D000"/>
<path d="M121.146 122.772L66.8832 130.802C66.8832 130.802 61.0946 131.184 52.9038 149.913" stroke="#5B9739" stroke-width="0.5" stroke-miterlimit="10" stroke-linecap="round"/>
<path d="M112.996 128.597C112.996 128.597 103.2 126.18 98.625 126.093" stroke="#5B9739" stroke-width="0.5" stroke-miterlimit="10" stroke-linecap="round"/>
<path d="M103.228 118.113C103.228 118.113 97.3004 125.435 88.9541 127.482" stroke="#5B9739" stroke-width="0.5" stroke-miterlimit="10" stroke-linecap="round"/>
<path d="M95.5578 137.24C95.5578 137.24 88.8291 129.621 80.3763 128.86" stroke="#5B9739" stroke-width="0.5" stroke-miterlimit="10" stroke-linecap="round"/>
<path d="M87.6416 120.221C87.6416 120.221 81.7136 127.543 73.3673 129.589" stroke="#5B9739" stroke-width="0.5" stroke-miterlimit="10" stroke-linecap="round"/>
<path d="M147.188 113.896C143.784 118.945 139.411 124.049 133.87 129.132" stroke="#5B9739" stroke-width="0.5" stroke-miterlimit="10" stroke-linecap="round"/>
<path d="M156.737 91.3763C155.651 97.0163 153.618 102.891 150.277 108.876" stroke="#5B9739" stroke-width="0.5" stroke-miterlimit="10" stroke-linecap="round"/>
<path d="M147.108 45.0928C147.108 45.0928 157.564 56.61 157.724 80.6374" stroke="#5B9739" stroke-width="0.5" stroke-miterlimit="10" stroke-linecap="round"/>
<path d="M144.029 63.0747C145.755 68.9972 146.485 75.8277 145.401 83.5142" stroke="#5B9739" stroke-width="0.5" stroke-miterlimit="10" stroke-linecap="round"/>
<path d="M125.133 35.8594C125.133 35.8594 132.919 41.275 138.951 51.454" stroke="#5B9739" stroke-width="0.5" stroke-miterlimit="10" stroke-linecap="round"/>
</g>
<defs>
<filter id="filter0_d_512_3249" x="5.00134" y="0.759277" width="179.162" height="216.839" filterUnits="userSpaceOnUse" color-interpolation-filters="sRGB">
<feFlood flood-opacity="0" result="BackgroundImageFix"/>
<feColorMatrix in="SourceAlpha" type="matrix" values="0 0 0 0 0 0 0 0 0 0 0 0 0 0 0 0 0 0 127 0" result="hardAlpha"/>
<feOffset dx="4" dy="3"/>
<feGaussianBlur stdDeviation="5"/>
<feComposite in2="hardAlpha" operator="out"/>
<feColorMatrix type="matrix" values="0 0 0 0 0 0 0 0 0 0 0 0 0 0 0 0 0 0 0.25 0"/>
<feBlend mode="normal" in2="BackgroundImageFix" result="effect1_dropShadow_512_3249"/>
<feBlend mode="normal" in="SourceGraphic" in2="effect1_dropShadow_512_3249" result="shape"/>
</filter>
</defs>
</svg>
