<svg width="368" height="462" viewBox="0 0 368 462" fill="none" xmlns="http://www.w3.org/2000/svg">
<g opacity="0.4">
<path d="M325.696 132.664C325.696 132.664 375.012 168.86 370.164 206.09C365.316 243.32 285.37 244.89 310.843 254.061C336.315 263.232 377.082 228.241 377.082 228.241C377.082 228.241 391.65 238.802 380.454 290.949C369.236 343.085 275.426 319.598 275.426 319.598C186.883 454.273 140.142 337.1 140.086 322.678C140.031 308.257 213.525 306.271 208.216 298.328C202.928 290.397 162.049 310.769 136.972 306.108C111.895 301.447 85.8989 231.6 91.8217 212.625C97.7445 193.651 159.795 245.003 159.423 224.04C159.051 203.077 77.173 220.561 93.5832 148.629C109.993 76.697 105.498 85.0932 136.86 137.317C168.201 189.528 209.657 167.819 182.738 152.749C83.137 96.9744 151.871 10.3631 151.871 10.3631C270.757 53.9797 219.49 146.376 235.198 145.037C250.874 143.706 221.985 42.2186 241.443 60.4328C260.901 78.647 290.79 57.4321 310.723 96.4733C330.645 135.536 266.197 197.915 292.011 207.913C317.825 217.911 325.717 132.676 325.717 132.676L325.696 132.664ZM180.306 247.892C160.349 243.209 144.099 250.002 146.601 260.863C149.103 271.723 189.54 270.2 189.54 270.2C203.393 264.643 200.275 252.554 180.306 247.892ZM259.212 169.915C242.684 187.402 241.218 196.409 242.565 204.327C242.565 204.327 264.909 196.256 269.098 180.355C273.299 164.433 275.761 152.44 259.212 169.915ZM310.548 277.17C298.175 282.003 283.922 283.656 291.456 293.061C291.456 293.061 312.908 301.566 321.52 290.43C330.144 279.272 322.922 272.338 310.548 277.17Z" fill="#B7D331"/>
<path d="M367.784 461.329C367.784 461.329 247.077 335.501 162.428 37.4497" stroke="#02604D" stroke-width="0.5" stroke-linecap="round" stroke-linejoin="round"/>
</g>
</svg>
