<svg width="176" height="168" viewBox="0 0 176 168" fill="none" xmlns="http://www.w3.org/2000/svg">
<path d="M52.351 18.4295L41.2018 6.55566C40.46 5.76708 39.1113 6.33035 39.1787 7.41184L41.3591 51.8429C41.3816 52.3837 41.7637 52.8343 42.3032 52.947L87.3048 61.9819C88.3838 62.2072 89.1256 60.9455 88.4512 60.0893L78.9429 48.238C78.6057 47.8099 78.5832 47.2016 78.9429 46.7735C82.7193 42.087 104.366 16.1764 121.112 12.4813C122.281 12.2335 122.371 10.6112 121.225 10.2507L91.8455 0.967975C85.3942 -1.05981 78.3809 0.134328 72.9637 4.21244L53.902 18.5647C53.43 18.9252 52.7556 18.8576 52.351 18.4295Z" fill="#5B9739"/>
<path d="M106.097 29.4696C105.849 28.3881 106.187 27.2841 107.018 26.5406C111.312 22.7328 125.203 11.7152 136.555 17.1677C147.682 22.5075 149.075 41.9518 149.21 48.8688C149.233 50.3108 148.244 51.55 146.827 51.8429L115.785 58.5346C114.166 58.8725 112.57 57.8586 112.211 56.2589L106.119 29.4696H106.097Z" fill="#5B9739"/>
<path d="M158.651 93.0073L174.611 89.7628C175.69 89.5375 175.892 88.118 174.948 87.5773L136.128 66.0377C135.656 65.7673 135.071 65.88 134.712 66.263L103.354 99.8567C102.613 100.668 103.265 101.952 104.366 101.817L119.426 99.9468C119.966 99.8792 120.483 100.172 120.663 100.713C122.641 106.413 133.251 138.475 127.541 154.697C127.137 155.846 128.463 156.747 129.384 155.959L152.694 135.839C157.819 131.423 160.494 124.799 159.887 118.062L157.752 94.2465C157.707 93.6607 158.112 93.0974 158.696 92.9847L158.651 93.0073Z" fill="#5B9739"/>
<path d="M120.978 132.999C122.034 133.36 122.776 134.239 122.978 135.343C123.945 140.998 125.99 158.64 115.38 165.444C104.995 172.113 87.777 163.056 81.8202 159.541C80.5839 158.797 80.0669 157.31 80.5614 155.936L91.2387 125.947C91.8006 124.393 93.4865 123.559 95.06 124.1L120.978 132.999Z" fill="#5B9739"/>
<path d="M43.2923 145.459L38.4145 161.028C38.0773 162.064 39.2237 162.966 40.1454 162.38L77.7291 138.745C78.1787 138.452 78.381 137.889 78.2237 137.393L64.0848 93.6378C63.7476 92.6014 62.2865 92.5338 61.8819 93.5702L56.2174 107.697C56.0151 108.215 55.4981 108.508 54.9586 108.418C49.0468 107.404 15.8912 101.163 4.4947 88.3205C3.68548 87.4192 2.24687 88.1402 2.49413 89.3344L8.76559 119.503C10.1368 126.127 14.6324 131.693 20.814 134.419L42.6405 144.085C43.1799 144.333 43.4721 144.941 43.2923 145.504V145.459Z" fill="#5B9739"/>
<path d="M26.5908 93.052C25.7591 93.7955 24.6352 94.0434 23.5787 93.6603C18.1839 91.7903 1.79718 85.031 0.987955 72.4362C0.201213 60.1117 16.4306 49.387 22.3873 45.8721C23.6236 45.1511 25.1971 45.4215 26.1412 46.503L47.136 70.3858C48.2374 71.625 48.125 73.5176 46.8887 74.6217L26.5683 93.052H26.5908Z" fill="#5B9739"/>
</svg>
