<svg width="93" height="84" viewBox="0 0 93 84" fill="none" xmlns="http://www.w3.org/2000/svg">
<path d="M52.9023 82.9422C55.3449 82.1761 57.2525 81.1871 58.8078 80.1016C58.8078 80.1016 58.7792 80.1353 58.7649 80.1522C58.9868 79.9927 59.1463 79.8383 59.3681 79.6788C59.6639 79.4661 59.9739 79.2365 60.236 78.9952C60.4695 78.7876 60.6694 78.5514 60.9029 78.3438C61.3934 77.8325 61.8502 77.2927 62.2306 76.7748C62.3734 76.6061 62.5161 76.4374 62.6109 76.2569C62.8057 75.9584 62.9382 75.6649 63.1019 75.3689C63.211 75.1716 63.3344 74.9574 63.4123 74.7626C63.5449 74.4692 63.6463 74.1783 63.762 73.8706C63.8232 73.6615 63.9154 73.4498 63.9766 73.2408C64.0612 72.9356 64.1484 72.6616 64.2019 72.359C64.263 72.1499 64.2931 71.9433 64.3231 71.7368C64.3623 71.4511 64.4326 71.1628 64.4408 70.8796C64.4565 70.6899 64.4723 70.5003 64.4881 70.3106C64.4962 70.0275 64.5354 69.7417 64.5292 69.4754C64.5307 69.3026 64.5205 69.1779 64.522 69.0051C64.5071 68.4413 64.4805 67.9255 64.4228 67.4123C64.4125 67.2876 64.3855 67.1486 64.3753 67.0239C64.3405 66.7913 64.3084 66.5899 64.2594 66.3742C64.2323 66.2352 64.2027 66.0649 64.1757 65.9259C64.1292 65.7414 64.0996 65.5712 64.0532 65.3866C64.0261 65.2476 63.9822 65.0943 63.9409 64.9721C63.897 64.8188 63.8557 64.6966 63.8286 64.5576C63.7873 64.4354 63.7628 64.3276 63.7215 64.2054C63.697 64.0975 63.6582 64.0066 63.6363 63.9299C63.6118 63.822 63.5755 63.7622 63.5368 63.6713C63.5174 63.6258 63.498 63.5803 63.4786 63.5348C63.4398 63.4438 63.4204 63.3983 63.4204 63.3983C76.9286 66.0058 77.9131 61.9695 81.2688 54.0023C81.543 53.3362 81.8316 52.6532 82.1655 51.9508C83.9379 47.9751 85.4966 46.1673 86.9431 44.9024C87.7605 44.1759 88.5452 43.6247 89.3223 42.98C89.3937 42.8956 89.513 42.823 89.6012 42.753C89.7012 42.6349 89.8205 42.5623 89.9204 42.4442C90.0203 42.3261 90.1371 42.2223 90.2681 42.1016C90.3538 42.0004 90.4537 41.8823 90.5394 41.7811C90.6679 41.6292 90.7964 41.4774 90.9248 41.3255C91.0105 41.2243 91.1104 41.1062 91.1961 41.005C91.3531 40.8194 91.4765 40.6052 91.631 40.3884C91.7166 40.2872 91.7855 40.1717 91.8543 40.0561C91.8686 40.0393 91.8971 40.0055 91.9114 39.9886C92.1036 39.6589 92.3101 39.3123 92.5114 38.9033C94.5236 34.9864 87.055 32.321 77.1184 33.359C76.1255 33.4721 75.1183 33.6022 74.0683 33.7828C71.9994 34.1415 69.85 34.6638 67.699 35.3589C66.6164 35.7149 65.5363 36.102 64.4614 36.5516C63.9311 36.7679 63.3865 37.0011 62.8587 37.2486C61.2585 37.9768 59.6517 38.8154 58.1031 39.7905L58.0746 39.8242C57.3587 40.2599 56.7024 40.6592 56.0461 41.0586C55.8814 41.1506 55.7336 41.257 55.5689 41.349C54.9411 41.7146 54.3445 42.0776 53.7622 42.4238C53.6572 42.4796 53.569 42.5496 53.4782 42.5885C52.9698 42.8815 52.4757 43.1576 52.0127 43.4311C51.9076 43.4869 51.7883 43.5595 51.6833 43.6152C51.1749 43.9082 50.6951 44.1675 50.2295 44.4098C50.1244 44.4656 50.0194 44.5213 49.9144 44.5771C49.5085 44.7831 49.1025 44.9892 48.742 45.1759C48.6824 45.2122 48.637 45.2316 48.5773 45.2679C48.1714 45.474 47.7941 45.6463 47.4478 45.8161C47.3571 45.8549 47.2663 45.8938 47.1755 45.9327C46.8293 46.1025 46.4973 46.2553 46.1939 46.3745C46.1654 46.4083 46.1343 46.4108 46.1032 46.4134C45.8308 46.53 45.5585 46.6466 45.3148 46.7294C45.2551 46.7657 45.1786 46.7877 45.1333 46.8072C44.8752 46.9069 44.6315 46.9897 44.4188 47.07C44.3734 47.0895 44.3281 47.1089 44.2658 47.114C44.0675 47.1774 43.9002 47.2383 43.7304 47.268C43.7161 47.2849 43.6539 47.29 43.6228 47.2925C43.4387 47.3391 43.2857 47.3831 43.1159 47.4128C43.0848 47.4153 43.0394 47.4348 43.0083 47.4373C42.8696 47.4644 42.7309 47.4915 42.6065 47.5018C42.482 47.512 42.3576 47.5223 42.2643 47.53C42.2643 47.53 42.2332 47.5325 42.2021 47.5351C42.1087 47.5428 42.0297 47.5336 41.9506 47.5244C41.8716 47.5152 41.8236 47.5035 41.7589 47.4774C41.7252 47.4488 41.6462 47.4396 41.6125 47.411C41.4804 47.3277 41.4559 47.2198 41.4391 47.2055C42.5865 46.8756 43.5853 46.0714 44.0844 44.9002C44.5054 43.9238 44.4976 42.8728 44.1695 41.9267C47.5714 41.0188 53.1246 39.039 56.5948 35.1432C56.8232 34.8733 56.8068 34.4822 56.5375 34.2533C56.2682 34.0243 55.8781 34.0408 55.6497 34.3107C52.3223 38.0377 46.7639 39.9552 43.5436 40.7854C43.1385 40.238 42.5999 39.7801 41.9185 39.4909C41.0908 39.1353 40.2095 39.0823 39.3941 39.2593C37.802 36.4553 35.118 30.8376 35.553 25.6379C35.5871 25.2898 35.327 24.9816 34.9797 24.9474C34.6324 24.9132 34.3249 25.174 34.2908 25.5221C33.8334 31.0218 36.4939 36.7357 38.1948 39.7191C37.462 40.1404 36.8573 40.7866 36.4882 41.6332C35.9892 42.8044 36.094 44.0828 36.6358 45.1526C36.6072 45.1863 36.5475 45.2226 36.5022 45.242C36.5022 45.242 36.5022 45.242 36.4853 45.2277C36.4348 45.1848 36.3701 45.1587 36.3027 45.1015C36.2859 45.0872 36.2691 45.0729 36.2354 45.0443C36.1849 45.0013 36.1176 44.9441 36.0334 44.8725C35.9998 44.8439 35.9661 44.8153 35.9299 44.7555C35.8625 44.6983 35.8069 44.593 35.7202 44.4903C35.6697 44.4473 35.6503 44.4018 35.6141 44.342C35.5249 44.2081 35.4499 44.0573 35.358 43.8923C35.3244 43.8636 35.305 43.8181 35.2856 43.7727C35.1576 43.5478 35.0438 43.306 34.8938 43.0044C34.8576 42.9446 34.8356 42.868 34.8137 42.7913C34.6999 42.5495 34.6004 42.2909 34.4841 42.018C34.4428 41.8958 34.4014 41.7736 34.3433 41.6372C34.2269 41.3642 34.1223 41.0432 34.0177 40.7222C33.9596 40.5858 33.9325 40.4467 33.8744 40.3103C33.7284 39.8671 33.5657 39.4096 33.4146 38.9041C33.3952 38.8586 33.3901 38.7963 33.3539 38.7365C33.1809 38.1543 32.9885 37.5266 32.7911 36.8366C32.7446 36.652 32.6982 36.4675 32.6517 36.283C32.5149 35.7606 32.3588 35.1927 32.2169 34.608C32.1485 34.3468 32.0801 34.0856 32.026 33.8075C31.8842 33.2228 31.7372 32.5757 31.5902 31.9286C31.5361 31.6505 31.4677 31.3893 31.3967 31.0969C31.1762 30.1262 30.9532 29.1244 30.7225 28.029C29.5934 22.6599 27.4542 17.7664 24.9239 13.6427C24.0909 12.2673 23.1865 10.9763 22.2755 9.79567C21.697 9.04283 21.1237 8.35235 20.536 7.67874C20.1892 7.26782 19.8449 6.88809 19.4863 6.52523C14.1907 0.949883 8.88456 -1.12448 7.65567 2.41406C7.50481 2.86596 7.38249 3.28412 7.27445 3.68541C7.23928 3.82957 7.21839 3.95686 7.18068 4.06983C7.12207 4.31009 7.06603 4.58153 7.02171 4.80491C6.98655 4.94907 6.9825 5.09066 6.94733 5.23482C6.91728 5.44134 6.90151 5.63098 6.88573 5.82063C6.88168 5.96223 6.86335 6.1207 6.85929 6.26229C6.8578 6.43507 6.85374 6.57666 6.85225 6.74943C6.84819 6.89103 6.86097 7.04693 6.85692 7.18853C6.86714 7.31325 6.86054 7.42366 6.87076 7.54838C6.93827 8.56304 7.06287 9.51022 7.12121 10.6041C7.20061 12.5281 6.95677 14.9026 5.29705 18.916C4.99681 19.6471 4.70829 20.3301 4.41721 20.9818C0.965654 28.9255 -1.28574 32.407 9.91172 40.4471C9.91172 40.4471 9.88318 40.4809 9.80668 40.5029C9.73019 40.5249 9.62514 40.5806 9.48899 40.6389C9.48899 40.6389 9.48899 40.6389 9.47472 40.6558C8.19224 41.2479 4.52741 43.1507 2.39745 46.9675C0.675326 50.0287 -0.0205005 54.3395 2.41316 60.1505C2.62386 60.6197 2.8203 61.1058 3.06467 61.6036C3.30904 62.1015 3.56513 62.5512 3.83549 62.9841C3.83549 62.9841 3.83549 62.9841 3.85232 62.9985C4.10586 63.4171 4.38794 63.8019 4.69858 64.153C12.7253 73.8198 29.7904 59.2616 32.6214 56.7369L27.5241 70.0114C27.2784 70.6437 27.5886 71.3716 28.2052 71.6347C28.8386 71.9122 29.5673 71.6324 29.861 71.0118L36.0807 57.6763C36.0807 57.6763 36.2533 86.338 51.3011 83.4665C51.3011 83.4665 51.3322 83.4639 51.3633 83.4614C51.8559 83.358 52.3628 83.2378 52.8982 83.0838L52.9023 82.9422Z" fill="#55B76B"/>
</svg>
