<svg width="72" height="70" viewBox="0 0 72 70" fill="none" xmlns="http://www.w3.org/2000/svg">
<g clip-path="url(#clip0_512_3355)">
<path d="M0 34.5969C0.198439 33.4871 0.284184 32.3406 0.617366 31.2724C1.32293 29.0039 2.13138 26.7647 2.94964 24.5329C3.78259 22.2545 4.67679 20.0006 5.54649 17.7345C5.62734 17.5238 5.71799 17.318 5.82333 17.0657C6.59259 17.3597 7.3202 17.6365 8.10905 17.9378C8.01841 18.2073 7.94981 18.4425 7.86407 18.6703C6.4358 22.4529 4.95363 26.2135 3.5915 30.0181C1.95499 34.5896 2.19753 39.1463 3.98838 43.6369C4.09862 43.9137 4.20642 44.193 4.33871 44.5336C3.5817 44.8496 2.84674 45.1583 2.05789 45.489C1.22003 43.5438 0.578168 41.606 0.281734 39.5628C0.18864 38.9283 0.0930949 38.2913 0 37.6543C0 36.6352 0 35.6161 0 34.5969Z" fill="black"/>
<path d="M71.1514 63.7847H68.6942V52.5276H71.1514V63.7847Z" fill="black"/>
<path d="M71.1515 68.7872H68.6501C68.6501 68.3438 68.6501 67.9396 68.6501 67.5329C68.6501 67.1262 68.6501 66.7587 68.6501 66.2834H71.1515V68.7848V68.7872Z" fill="black"/>
<path d="M27.3968 50.5406V53.7059C28.4723 54.1444 28.6291 54.3771 28.6291 55.5286C28.6291 58.5395 28.6291 61.5503 28.6291 64.5612C28.6291 65.6833 28.4552 65.9356 27.3748 66.3472V70.0024H24.898V66.3251H12.4036V69.9901H9.89253V66.3276C8.7558 66.1242 8.5941 65.3354 8.6039 64.3628C8.63575 61.4695 8.61615 58.5738 8.61615 55.678C8.61615 54.2252 8.84889 53.946 10.3115 53.7083C9.94643 52.8239 9.58385 51.9542 9.22617 51.0796C8.23397 48.6641 7.18788 46.2681 6.26428 43.8256C4.28969 38.5951 4.44403 33.3622 6.42107 28.1611C8.77049 21.9826 11.1297 15.8065 13.4889 9.63035C14.5448 6.862 16.7252 5.76691 19.5744 6.51902C19.8145 6.58272 20.1869 6.44308 20.3927 6.27158C22.377 4.61303 24.528 3.2362 26.9044 2.20971C32.2696 -0.112764 37.7965 -0.602737 43.4753 0.73244C47.4833 1.67564 51.0674 3.49099 54.2008 6.16624C54.6295 6.53127 54.9823 6.62437 55.5458 6.45287C57.6772 5.79876 60.0143 6.77871 60.8889 8.82679C62.06 11.5657 63.0767 14.3733 64.1374 17.1588C65.6686 21.1766 67.2439 25.1796 68.682 29.2293C70.5439 34.4744 70.2376 39.6877 68.1332 44.8129C66.9229 47.7625 65.6931 50.7023 64.4437 53.7157C64.6372 53.7426 64.7818 53.7622 64.9263 53.7818C65.7078 53.897 66.1341 54.3281 66.1365 55.1341C66.1512 58.3998 66.1463 61.6655 66.139 64.9312C66.139 65.7274 65.6613 66.1463 64.8969 66.3202V69.9852H62.425V66.3423H49.9086V69.9975H47.4294V66.3276C46.3049 66.1242 46.1162 65.3721 46.126 64.4142C46.1554 61.4744 46.1554 58.5321 46.126 55.5898C46.1162 54.6491 46.3416 53.9411 47.3706 53.7426V50.548C40.7192 53.1473 34.085 53.1645 27.3944 50.5406H27.3968ZM18.8321 20.5886C22.3182 20.9879 23.6265 22.4627 23.6265 25.8803C23.6265 28.5899 23.6485 31.2994 23.6167 34.009C23.602 35.3564 23.8421 36.6205 24.4251 37.8381C25.8338 40.7804 26.7672 43.8672 27.1224 47.1182C27.169 47.5371 27.3258 47.7992 27.7618 47.983C34.1927 50.7146 40.6114 50.7121 47.0349 47.9658C47.4294 47.7968 47.5984 47.5641 47.6425 47.1549C47.9977 43.8574 48.9556 40.7314 50.3839 37.745C50.9351 36.5936 51.1605 35.3931 51.1483 34.1167C51.1213 31.1524 51.1336 28.1881 51.1434 25.2237C51.1483 23.3128 51.9665 21.8576 53.7182 21.0541C54.3674 20.7576 55.1219 20.6964 55.8814 20.5151C55.8153 20.3387 55.7442 20.1256 55.6585 19.9198C54.6834 17.6194 53.6961 15.3263 52.7407 13.021C52.5128 12.4722 52.2507 11.872 52.2679 11.3036C52.2948 10.2943 52.5251 9.28982 52.6868 8.17268C43.0539 -0.291603 29.0946 1.49435 21.8944 8.41767C22.6196 9.66465 22.7886 10.9802 22.2962 12.3472C22.0463 13.043 21.7401 13.7192 21.4534 14.4002C20.5911 16.441 19.7263 18.4793 18.8321 20.591V20.5886ZM49.9454 53.7377C50.0458 53.75 50.134 53.772 50.2198 53.772C53.9019 53.772 57.5841 53.7647 61.2662 53.7867C61.6974 53.7867 61.8125 53.5613 61.9399 53.2477C63.2653 50.0433 64.6152 46.8487 65.9161 43.6345C67.6824 39.2688 68.0156 34.788 66.4109 30.3415C63.9856 23.624 61.3814 16.9701 58.8433 10.2943C58.3435 8.97624 57.1382 8.42747 55.9574 8.92724C54.8059 9.41231 54.4188 10.5735 54.9799 11.9038C56.3567 15.1621 57.7286 18.4229 59.1226 21.6739C59.6517 22.9062 59.9041 24.1776 59.8992 25.5177C59.8869 30.0794 59.8943 34.6435 59.8943 39.2051V39.9768H57.393C57.393 39.6853 57.393 39.4354 57.393 39.1831C57.393 34.5749 57.3881 29.9642 57.3979 25.356C57.3979 24.6186 57.2313 23.967 56.6139 23.5235C56.0284 23.1022 55.3669 23.0262 54.7079 23.3447C53.9656 23.7048 53.6422 24.3369 53.6422 25.1478C53.6422 28.1807 53.6275 31.2161 53.6471 34.249C53.6569 35.8047 53.3874 37.2869 52.6917 38.6833C50.3423 43.4115 49.6147 48.4411 49.9429 53.7377H49.9454ZM24.8784 53.7745C24.8784 52.8533 24.8686 52.0424 24.8784 51.2315C24.9347 46.9491 24.0822 42.8603 22.2129 39.0018C21.4387 37.4045 21.0909 35.7435 21.1129 33.9698C21.1521 31.074 21.1301 28.1783 21.1203 25.2825C21.1154 23.9302 20.2212 23.0605 19.006 23.1953C17.9991 23.3055 17.3769 24.1091 17.3744 25.3364C17.3695 29.9691 17.3744 34.6018 17.3744 39.2345C17.3744 39.4795 17.3744 39.7245 17.3744 39.9597H14.8731C14.8731 39.651 14.8731 39.3962 14.8731 39.1439C14.8731 34.7194 14.8903 30.295 14.8633 25.8705C14.8535 24.2903 15.1475 22.8082 15.7796 21.3554C17.1686 18.1779 18.4965 14.9735 19.8537 11.7813C20.1869 10.9974 20.1869 10.2428 19.6405 9.55685C19.1408 8.92724 18.4622 8.65775 17.6709 8.7729C16.7252 8.91254 16.1936 9.53725 15.8653 10.4021C13.4865 16.6713 11.093 22.9331 8.7117 29.2023C6.97474 33.7787 6.8547 38.3893 8.6186 42.9681C9.96603 46.4616 11.4678 49.8963 12.874 53.3678C13.0406 53.7745 13.2954 53.7769 13.631 53.7745C17.1735 53.7696 20.7185 53.772 24.261 53.772C24.4398 53.772 24.6187 53.772 24.8735 53.772L24.8784 53.7745ZM26.0788 63.7503V56.3321H11.1567V63.7503H26.0788ZM63.6156 56.3272H48.696V63.743H63.6156V56.3272Z" fill="black"/>
<path d="M7.22471 13.3101C8.00621 13.6065 8.73137 13.8833 9.54718 14.192C9.30709 14.8339 9.07925 15.4439 8.82447 16.1225C8.04296 15.8261 7.30065 15.5419 6.48975 15.2357C6.73963 14.5815 6.97237 13.9691 7.22471 13.3101Z" fill="black"/>
<path d="M26.0789 63.7505H11.1567V56.3323H26.0789V63.7505Z" fill="#22B573"/>
<path d="M63.6156 56.3274V63.7431H48.6959V56.3274H63.6156Z" fill="#22B573"/>
<path d="M37.113 36.4294V39.9009C36.329 39.9695 35.5598 40.0357 34.6607 40.114C34.6313 39.2786 34.5161 38.4751 34.597 37.6936C34.7195 36.5152 34.4353 35.8586 33.2079 35.3393C30.6674 34.2613 29.5307 31.9903 29.0603 29.3959C28.0559 23.8494 30.7825 19.3661 35.2266 16.8256C39.1586 14.5791 43.3504 14.6109 47.596 15.8285C48.5735 16.1078 48.9214 16.9261 48.3799 17.7713C47.2579 19.5229 47.0252 21.4632 46.9296 23.4721C46.8341 25.4785 46.8169 27.5168 46.4225 29.4718C45.5185 33.9673 42.2553 36.6548 37.5417 36.427C37.429 36.4221 37.3139 36.427 37.113 36.427V36.4294ZM45.516 17.8178C44.8227 17.7223 44.2323 17.6096 43.637 17.5606C40.3762 17.2887 37.3825 17.9526 34.8273 20.1182C31.7037 22.7666 30.5964 26.4364 31.8507 30.1553C32.3358 31.5959 33.1663 32.7694 34.7611 33.323C35.1997 29.3861 36.138 25.6427 37.75 22.0193C38.5192 22.3599 39.2468 22.6808 40.0136 23.0213C38.5217 26.5344 37.5638 30.1039 37.2404 33.8742C38.6711 34.0041 39.9965 33.8669 41.219 33.1344C43.1397 31.9854 43.9285 30.1431 44.1711 28.0534C44.3499 26.5197 44.3573 24.9616 44.394 23.4133C44.4406 21.5245 44.8007 19.7018 45.5111 17.8178H45.516Z" fill="#22B573"/>
<path d="M46.6797 7.13391C46.3171 7.87867 45.9766 8.58178 45.5895 9.37553C41.0328 7.2711 36.3511 6.93057 31.5273 8.41274C31.3068 7.74882 31.1084 7.1633 30.9173 6.57534C30.8683 6.4259 30.8438 6.2691 30.7948 6.04617C36.2457 4.35086 41.5056 4.73059 46.6822 7.13146L46.6797 7.13391Z" fill="black"/>
<path d="M26.8211 10.7229C26.3434 10.0223 25.9024 9.37552 25.4125 8.65526C26.2944 8.14079 27.1396 7.64591 28.0657 7.10449C28.4503 7.89335 28.8006 8.60871 29.1632 9.35102C28.3817 9.80914 27.6321 10.2477 26.8211 10.7229Z" fill="black"/>
</g>
<defs>
<clipPath id="clip0_512_3355">
<rect width="71.1514" height="70" fill="white"/>
</clipPath>
</defs>
</svg>
