<svg width="71" height="70" viewBox="0 0 71 70" fill="none" xmlns="http://www.w3.org/2000/svg">
<g clip-path="url(#clip0_512_3382)">
<path d="M0 60.9692V27.6147C0.407253 26.9627 1.01539 26.8093 1.74954 26.8129C7.50039 26.8294 13.2494 26.8221 19.0003 26.8221C19.2669 26.8221 19.5335 26.8221 19.8659 26.8221V26.013C19.8659 23.7138 19.8787 21.4127 19.8568 19.1135C19.8513 18.4743 20.054 17.9812 20.5106 17.5374C21.7195 16.3613 22.9212 15.1761 24.0827 13.9543C24.3292 13.6932 24.5027 13.2585 24.5137 12.8988C24.5612 11.3976 24.5082 9.89277 24.5447 8.38977C24.5594 7.75789 24.4169 7.28489 23.9238 6.83929C23.1641 6.1508 23.197 5.53718 23.9384 4.79024C25.2387 3.479 26.5463 2.17506 27.863 0.880251C28.1863 0.560658 28.5534 0.290373 28.9003 0C42.6428 0 56.3853 0 70.1278 0V14.3543C69.7516 14.9898 69.1928 15.1816 68.4641 15.1798C61.6888 15.1615 54.9116 15.1688 48.1362 15.1688H47.4148L47.3162 15.3386C48.0997 16.0892 48.9306 16.796 49.6428 17.6068C49.9697 17.9812 50.2071 18.5492 50.2364 19.0459C50.3167 20.4083 50.2638 21.7762 50.2638 23.144C50.2638 24.3457 50.2638 25.5455 50.2638 26.8202H51.1312C56.8803 26.8202 62.6311 26.8276 68.3801 26.8111C69.1143 26.8093 69.7224 26.9627 70.1297 27.6128V60.9674C69.8886 61.2669 69.6731 61.592 69.4028 61.8622C66.9246 64.3478 64.4318 66.8187 61.9572 69.3115C61.4934 69.779 60.993 69.9982 60.3227 69.9982C43.4829 69.9872 26.6449 69.9872 9.80511 69.9982C9.13671 69.9982 8.63632 69.779 8.17062 69.3115C5.73076 66.8516 3.26898 64.4135 0.823637 61.959C0.522306 61.6559 0.273937 61.2998 0 60.9674L0 60.9692ZM2.37229 29.1925C2.35768 29.3825 2.33577 29.5359 2.33394 29.6893C2.33394 39.6916 2.32846 49.6921 2.34855 59.6945C2.34855 59.9867 2.53118 60.3465 2.74302 60.562C4.95278 62.8009 7.17897 65.0271 9.42708 67.2278C9.66815 67.4633 10.0864 67.6441 10.4224 67.6441C26.8586 67.6642 43.293 67.6642 59.7292 67.6441C60.047 67.6441 60.4414 67.4798 60.6697 67.257C62.9178 65.0545 65.1477 62.832 67.3501 60.5857C67.5985 60.3319 67.7756 59.8863 67.7775 59.5301C67.7994 49.6648 67.7957 39.7994 67.7957 29.9358C67.7957 29.6948 67.7957 29.4537 67.7957 29.1907H2.37229V29.1925ZM67.7738 2.37595H50.3039V12.7892H67.7738V2.37595ZM47.875 12.8221V2.32846H47.0021C41.5964 2.32846 36.1925 2.34307 30.7869 2.31203C30.0217 2.30655 29.4665 2.48917 28.9423 3.06444C28.0767 4.01409 27.1216 4.88338 26.2596 5.73076C27.7115 7.17532 29.0775 8.53587 30.4326 9.88364C30.9823 9.34307 31.5794 8.75867 32.2972 8.05557C31.7621 7.57344 31.1685 7.15888 30.7467 6.61101C30.5166 6.31151 30.4344 5.73624 30.5549 5.37647C30.6554 5.07514 31.1448 4.73728 31.4717 4.7245C31.8406 4.71171 32.2972 4.96739 32.5857 5.24315C33.8403 6.43569 35.0347 7.69215 36.2875 8.88651C36.534 9.1221 36.9431 9.29924 37.281 9.30472C39.5382 9.34125 41.7955 9.31751 44.0545 9.32664C45.1558 9.33029 45.5794 9.76494 45.5904 10.8643C45.5977 11.5127 45.5904 12.161 45.5904 12.8239H47.8696L47.875 12.8221ZM26.9097 19.8531V26.7764H43.209V19.8531H26.9097ZM24.4827 26.7892V16.7741C23.754 17.5411 23.1385 18.1456 22.5815 18.7994C22.3825 19.0313 22.2199 19.3801 22.2163 19.6796C22.1834 21.6374 22.1998 23.5951 22.1998 25.5528C22.1998 25.9546 22.1998 26.3582 22.1998 26.7892H24.4845H24.4827ZM47.9298 26.7892C47.9298 24.2799 47.9298 21.8474 47.9262 19.4148C47.9262 19.3071 47.9097 19.1665 47.8422 19.0989C47.1409 18.3775 46.4286 17.6671 45.6361 16.8727V26.791H47.928L47.9298 26.7892ZM29.209 17.4607C29.209 15.7422 29.209 14.0639 29.2053 12.3874C29.2053 12.2797 29.1889 12.1391 29.1213 12.0697C28.4219 11.3501 27.7096 10.6415 26.9097 9.83799V17.4607H29.209ZM31.5521 17.448H33.833V9.79598C33.0331 10.6288 32.372 11.3081 31.7274 12.0039C31.6306 12.108 31.5612 12.2833 31.5612 12.4258C31.5502 14.0804 31.5539 15.7368 31.5539 17.448H31.5521ZM36.24 17.4644H38.5338V11.6588C37.8617 11.6588 37.2299 11.6387 36.6016 11.6752C36.4738 11.6825 36.2565 11.9071 36.2546 12.0331C36.2309 13.8247 36.2382 15.6181 36.2382 17.4626L36.24 17.4644ZM40.9645 11.7026V17.4425H43.2181V11.7026H40.9645Z" fill="black"/>
<path d="M67.7738 2.37598V12.7892H50.304V2.37598H67.7738Z" fill="#22B573"/>
<path d="M47.875 12.822H45.5959C45.5959 12.1591 45.6014 11.5107 45.5959 10.8624C45.5831 9.76302 45.1594 9.3302 44.06 9.32472C41.8028 9.31559 39.5437 9.33933 37.2865 9.30281C36.9486 9.29733 36.5395 9.11836 36.293 8.8846C35.0402 7.69023 33.8476 6.43378 32.5912 5.24124C32.3026 4.9673 31.8461 4.7098 31.4772 4.72258C31.1503 4.73354 30.6608 5.07322 30.5604 5.37455C30.4399 5.73432 30.5202 6.30776 30.7522 6.6091C31.1722 7.15697 31.7676 7.57153 32.3026 8.05366C31.5849 8.75676 30.9896 9.34299 30.438 9.88173C29.083 8.53396 27.7169 7.17523 26.2651 5.72884C27.1271 4.88147 28.0822 4.01217 28.9478 3.06253C29.472 2.48726 30.0253 2.30646 30.7923 2.31011C36.1962 2.34299 41.6019 2.32655 47.0076 2.32655H47.8805V12.8202L47.875 12.822Z" fill="#22B573"/>
<path d="M29.2071 17.4589H26.9079V9.83618C27.7078 10.6397 28.42 11.3483 29.1195 12.0679C29.1871 12.1373 29.2035 12.2779 29.2035 12.3856C29.209 14.0621 29.2071 15.7404 29.2071 17.4589Z" fill="#22B573"/>
<path d="M31.5521 17.4479C31.5521 15.7367 31.5484 14.0803 31.5594 12.4257C31.5594 12.2832 31.6288 12.1079 31.7256 12.0038C32.3702 11.3099 33.0313 10.6305 33.8312 9.7959V17.4479H31.5502H31.5521Z" fill="#22B573"/>
<path d="M36.24 17.4626C36.24 15.6181 36.2327 13.8266 36.2564 12.0332C36.2564 11.9072 36.4756 11.6826 36.6034 11.6753C37.2317 11.6369 37.8635 11.6588 38.5356 11.6588V17.4645H36.2418L36.24 17.4626Z" fill="#22B573"/>
<path d="M40.9645 11.7007H43.2181V17.4406H40.9645V11.7007Z" fill="#22B573"/>
<path d="M46.2679 40.5626C46.5766 40.349 46.8213 40.1864 47.0569 40.0129C47.5116 39.6751 47.9883 39.5253 48.5142 39.8413C49.042 40.1609 49.1224 40.6594 49.0365 41.2128C48.927 41.9104 48.8429 42.6135 48.6804 43.2984C48.5434 43.8773 48.6695 44.3338 48.9963 44.8251C50.4701 47.044 51.9092 49.2866 53.3592 51.5238C53.8907 52.3438 53.8816 52.6999 53.3063 53.5052C51.5312 55.9889 49.7433 58.4635 47.9864 60.96C47.5481 61.5827 47.0222 61.8402 46.2606 61.8293C43.9796 61.7982 41.6968 61.8183 39.414 61.8183C39.1675 61.8183 38.9209 61.8183 38.5721 61.8183C38.5721 62.2402 38.6598 62.6255 38.5502 62.9433C38.4114 63.3414 38.1868 63.7925 37.8581 64.0208C37.4399 64.3111 36.9358 64.1358 36.5468 63.7797C36.4464 63.6866 36.3313 63.6026 36.2565 63.4912C35.2538 62.0174 33.8604 61.6941 32.1346 61.78C29.3806 61.9169 26.6139 61.7982 23.8526 61.8274C23.0856 61.8366 22.5706 61.5608 22.1359 60.9417C20.3919 58.4635 18.6167 56.009 16.8544 53.5436C16.2335 52.6743 16.2317 52.373 16.827 51.4507C18.4341 48.9652 20.043 46.4797 21.694 43.9266C21.3287 43.6545 20.9781 43.3805 20.6128 43.1285C20.1325 42.7961 19.7764 42.3944 19.9097 41.768C20.0485 41.1105 20.5562 40.8804 21.1607 40.7854C21.7232 40.6978 22.2838 40.5298 22.8463 40.5188C23.7503 40.5005 24.2489 40.044 24.7073 39.308C26.1628 36.9686 27.706 34.684 29.1834 32.3573C29.5834 31.7273 30.0874 31.4734 30.8234 31.4789C33.6522 31.5008 36.4829 31.5026 39.3136 31.4789C40.0843 31.4716 40.5774 31.7656 40.9883 32.4158C42.5716 34.9177 44.197 37.3923 45.8077 39.876C45.9429 40.0842 46.0853 40.2887 46.2716 40.5645L46.2679 40.5626ZM38.563 54.822C39.6204 54.822 40.5974 54.6941 41.527 54.8494C43.3076 55.1489 44.3906 54.4257 45.1156 52.8752C45.2763 52.5319 45.2909 52.3328 45.0937 52.0296C44.4362 51.0179 43.7861 50.0007 43.1779 48.9579C42.9113 48.4995 42.5899 48.2785 42.0566 48.2256C41.264 48.147 40.4806 47.9754 39.6953 47.8384C39.1602 47.7453 38.7475 47.4896 38.6251 46.9271C38.5064 46.3774 38.7182 45.9501 39.1748 45.6323C39.6003 45.3346 40.0203 45.0278 40.4166 44.7447C40.4039 44.6333 40.413 44.5822 40.3911 44.5475C39.6003 43.2691 38.815 41.9871 38.0097 40.7197C37.5367 39.9764 37.1824 38.9702 36.4957 38.6067C35.7981 38.2378 34.7571 38.4807 33.8696 38.5245C33.6102 38.5373 33.2687 38.7254 33.1281 38.9409C32.3191 40.1791 31.6196 41.494 30.7631 42.6957C30.0125 43.7494 29.682 44.7922 30.1057 46.0523C30.2554 46.4998 30.2609 46.9929 30.3485 47.4622C30.449 48.0046 30.3266 48.4703 29.8555 48.7807C29.3825 49.093 28.9058 49.0218 28.4511 48.7077C28.1424 48.494 27.8283 48.284 27.4923 48.0539C26.9572 48.9195 26.4623 49.7085 25.9802 50.5084C25.5839 51.1676 24.8881 51.847 24.9082 52.499C24.9283 53.1583 25.6387 53.8157 26.1007 54.4348C26.2468 54.6302 26.5609 54.8055 26.8002 54.8074C29.2418 54.8347 31.6854 54.8329 34.1271 54.8092C34.3864 54.8074 34.6968 54.6722 34.8941 54.4969C35.4712 53.9801 35.9569 53.3537 36.5706 52.8916C36.8829 52.656 37.4581 52.5081 37.7923 52.6378C38.1284 52.7674 38.3932 53.2587 38.5411 53.6477C38.6616 53.9655 38.5648 54.3654 38.5648 54.8256L38.563 54.822ZM24.0736 42.672C24.6415 43.4152 24.4187 44.0435 23.9823 44.7046C22.3898 47.117 20.8375 49.5551 19.2505 51.9712C19.013 52.331 19.0112 52.5757 19.2669 52.9281C20.7425 54.9516 22.198 56.9897 23.6407 59.0369C23.8782 59.3748 24.1357 59.4972 24.5429 59.4899C25.8195 59.4661 27.0978 59.4807 28.3744 59.4807H32.1912C31.3822 58.6717 31.426 57.9248 32.2077 57.1504C30.0509 57.1504 28.0657 57.1285 26.0824 57.1614C25.3592 57.1742 24.8826 56.9075 24.5064 56.3049C23.8909 55.3205 23.2463 54.3544 22.576 53.4066C22.1323 52.782 22.1487 52.2269 22.556 51.5859C23.6791 49.8199 24.7767 48.0356 25.856 46.2423C26.2431 45.5976 26.6632 45.0771 27.5982 45.2433C27.4211 44.1823 27.2585 43.2089 27.0869 42.1752C26.0605 42.3432 25.1017 42.5003 24.0736 42.6701V42.672ZM27.1837 39.7427C28.5333 39.6203 28.7195 39.7043 29.2912 40.6613C30.0326 39.4632 30.7868 38.2999 31.4808 37.1019C31.8662 36.4353 32.3647 36.1303 33.1409 36.1541C34.3718 36.1924 35.6045 36.1906 36.8335 36.1541C37.6024 36.1303 38.1046 36.4134 38.5064 37.0782C39.8505 39.2952 41.2348 41.4904 42.6209 43.6819C43.0811 44.4087 43.5687 45.1082 42.7853 45.9848C43.8518 46.1619 44.7887 46.3153 45.784 46.4815C45.9593 45.4351 46.1255 44.4398 46.3063 43.3604C45.448 43.5029 45.0407 43.0116 44.6645 42.4272C42.9296 39.728 41.1891 37.0325 39.4232 34.3534C39.2643 34.1123 38.9191 33.8512 38.6543 33.8475C36.2601 33.8092 33.8659 33.8201 31.4717 33.8348C31.2726 33.8348 30.9841 33.9188 30.8891 34.0649C29.6564 35.9185 28.4511 37.7886 27.1818 39.7427H27.1837ZM45.9374 48.9798C46.5127 49.9039 47.0477 50.7914 47.6121 51.6589C47.9956 52.2488 47.9846 52.7821 47.581 53.3628C46.8925 54.3526 46.2259 55.3589 45.5758 56.3743C45.2233 56.9258 44.7686 57.1705 44.102 57.1614C42.0493 57.134 39.9966 57.1376 37.9457 57.1596C37.2792 57.1669 36.6747 57.1011 36.3313 56.5313C35.683 57.1413 35.0584 57.7275 34.4631 58.2882C35.073 58.9146 35.6721 59.5282 36.3131 60.1875C36.6874 59.5264 37.3047 59.4752 37.9695 59.4789C40.5007 59.4917 43.0318 59.4734 45.563 59.4953C46.0031 59.499 46.2643 59.3602 46.5145 59.0041C47.8093 57.1596 49.1278 55.3333 50.4391 53.4998C50.9346 52.807 50.9462 52.0972 50.4738 51.3704C49.6702 50.1358 48.8667 48.9031 48.0321 47.6211C47.634 48.8538 47.5445 48.9122 45.9374 48.9835V48.9798Z" fill="#22B573"/>
</g>
<defs>
<clipPath id="clip0_512_3382">
<rect width="70.1278" height="70" fill="white"/>
</clipPath>
</defs>
</svg>
