<svg width="60" height="70" viewBox="0 0 60 70" fill="none" xmlns="http://www.w3.org/2000/svg">
<g clip-path="url(#clip0_512_3371)">
<path d="M31.0454 0C31.7199 0.0847823 32.3963 0.160144 33.067 0.258115C41.5245 1.50159 47.8285 5.92722 52.0601 13.2901C53.9555 16.5891 54.9276 20.2027 55.1386 24.0216C55.4778 30.1994 53.8028 35.7649 50.1647 40.7501C49.7766 41.2833 49.3584 41.8014 48.9062 42.28C48.5671 42.6398 48.5727 42.9149 48.8176 43.3369C52.2259 49.2039 55.6134 55.0821 59.0085 60.9566C59.2779 61.4219 59.5172 61.8515 59.1667 62.4073C58.6392 63.2494 58.1663 63.4567 57.2299 63.0893C55.0689 62.2415 52.9173 61.3767 50.7601 60.5195C50.1911 60.2934 49.6203 60.0692 48.9458 59.8035C48.8176 60.625 48.6858 61.3974 48.5765 62.1718C48.2826 64.2235 47.9981 66.2752 47.7079 68.327C47.6721 68.5757 47.6382 68.8262 47.5685 69.0655C47.2934 70.0207 46.1574 70.2996 45.4659 69.5723C45.2662 69.3613 45.1193 69.0957 44.9704 68.8413C41.5697 62.9706 38.169 57.0999 34.7852 51.2179C34.5384 50.7883 34.3236 50.6112 33.7886 50.7092C30.9606 51.2179 28.1232 51.1972 25.2953 50.6998C24.8073 50.6131 24.6189 50.7865 24.4004 51.1651C21.0147 57.0453 17.614 62.916 14.2189 68.7904C13.8459 69.4348 13.4823 70.1225 12.5855 69.9849C11.6246 69.838 11.5587 69.0429 11.4513 68.2761C11.0575 65.482 10.643 62.6918 10.2266 59.8186C9.94027 59.9222 9.69157 60.0051 9.44853 60.1012C7.01811 61.0696 4.58957 62.0418 2.15726 63.0083C1.94624 63.0912 1.72958 63.1684 1.50914 63.2155C0.529437 63.4265 -0.220415 62.6447 0.0584245 61.6857C0.145091 61.3842 0.307119 61.0997 0.465379 60.8266C3.79826 55.0482 7.1255 49.266 10.4885 43.5046C10.8277 42.9224 10.7504 42.589 10.3397 42.1029C5.51652 36.4093 3.44406 29.8038 4.42 22.4334C5.68797 12.8398 10.9727 6.08171 19.7279 2.0555C22.2638 0.889272 24.9806 0.273187 27.7822 0.105507C27.9593 0.0942025 28.1345 0.035797 28.3098 0C29.2216 0 30.1335 0 31.0454 0ZM52.6423 25.4271C52.5952 12.7644 42.4194 2.55289 29.7171 2.5284C17.0281 2.5039 6.75246 12.8963 6.77318 25.5779C6.7939 38.3932 16.9452 48.4728 29.7115 48.5124C42.3083 48.552 52.6913 38.0371 52.6442 25.4271H52.6423ZM55.052 59.3871C55.084 59.3476 55.1179 59.308 55.1499 59.2684C52.3257 54.385 49.5016 49.5015 46.7245 44.6972C45.1607 45.7466 43.7269 46.845 42.1669 47.7192C40.5919 48.601 38.8925 49.2585 37.2006 50.0366C39.9965 54.9106 42.8245 59.8355 45.6506 64.7605C46.1178 62.5109 46.4494 60.3292 46.7753 58.1474C46.9619 56.9002 47.6778 56.4801 48.8591 56.9454C50.5529 57.6105 52.2428 58.2831 53.9347 58.9519C54.3059 59.0989 54.6789 59.2421 55.0501 59.3871H55.052ZM12.6703 44.701C9.8894 49.511 7.06332 54.3963 4.1487 59.4324C4.53681 59.2986 4.74971 59.2364 4.95507 59.1554C6.83724 58.4112 8.71375 57.6576 10.5978 56.919C11.6566 56.5045 12.4103 56.9228 12.5892 58.0306C12.8285 59.5134 13.0433 60.9999 13.2713 62.4826C13.3862 63.2268 13.5068 63.9692 13.6236 64.7134C13.6726 64.7152 13.7216 64.7171 13.7705 64.719C16.591 59.8016 19.4095 54.8843 22.1904 50.0347C20.4759 49.2472 18.7953 48.5972 17.2391 47.7249C15.6791 46.8507 14.2434 45.7542 12.6703 44.701Z" fill="black"/>
<path d="M52.6422 25.4271C52.6893 38.0371 42.3063 48.5519 29.7096 48.5124C16.9433 48.4728 6.792 38.3931 6.77127 25.5778C6.75055 12.8963 17.0262 2.50387 29.7152 2.52836C42.4175 2.55286 52.5933 12.7644 52.6404 25.4271H52.6422ZM29.7171 45.4018C40.7124 45.3792 49.5298 36.56 49.5825 25.5345C49.6334 14.5844 40.6484 5.5956 29.6794 5.62763C18.6822 5.65965 9.84416 14.5072 9.8272 25.5044C9.80836 36.511 18.7199 45.4244 29.719 45.4018H29.7171Z" fill="#22B573"/>
<path d="M29.7171 45.402C18.7181 45.4246 9.80651 36.5092 9.82535 25.5045C9.84419 14.5073 18.6804 5.6598 29.6776 5.62777C40.6446 5.59574 49.6316 14.5845 49.5807 25.5346C49.5298 36.5601 40.7106 45.3812 29.7153 45.402H29.7171ZM12.3198 25.5365C12.3349 35.0717 20.1349 42.8698 29.6908 42.8999C39.3183 42.9301 47.0711 35.1395 47.0579 25.4423C47.0466 15.8864 39.2523 8.09211 29.7002 8.08269C20.2083 8.07515 12.3048 16.0108 12.3179 25.5365H12.3198Z" fill="black"/>
<path d="M29.8754 33.0162C28.4812 34.0279 27.1134 35.0453 25.7211 36.0288C24.2082 37.097 22.4296 36.6995 21.5102 35.1112C21.1259 34.4462 21.0637 33.7359 21.2992 33.0049C21.7683 31.556 22.2243 30.1015 22.7292 28.664C22.8931 28.2005 22.846 27.9443 22.4183 27.6542C21.156 26.7988 19.9106 25.9152 18.6954 24.9939C17.7383 24.2685 17.3823 23.2549 17.6422 22.0849C17.8796 21.0204 18.5711 20.3327 19.6299 20.0501C19.888 19.9804 20.1688 19.9672 20.4382 19.9654C21.919 19.9559 23.3999 19.939 24.8808 19.971C25.3499 19.9804 25.5609 19.8429 25.6947 19.3907C26.1355 17.908 26.5877 16.429 27.0983 14.9707C27.6541 13.3825 29.2329 12.6816 30.808 13.277C31.7349 13.6274 32.2342 14.3754 32.5262 15.276C32.969 16.6381 33.4061 18.0041 33.8112 19.3756C33.9412 19.8127 34.1296 19.9861 34.6157 19.9748C36.1417 19.939 37.6678 19.9541 39.1939 19.971C40.5071 19.9861 41.5037 20.7604 41.9201 22.0548C42.3403 23.3585 42.0369 24.2893 40.8745 25.1408C39.68 26.015 38.4798 26.8817 37.2609 27.7182C36.9123 27.9575 36.852 28.1704 36.9877 28.5604C37.4738 29.9565 37.9127 31.3676 38.3875 32.7675C38.8077 34.0072 38.478 35.2186 37.4813 36.0193C36.5299 36.7824 35.2657 36.854 34.1748 36.1173C32.9502 35.2883 31.7726 34.3896 30.5725 33.5211C30.3521 33.361 30.1316 33.2046 29.8735 33.0218L29.8754 33.0162ZM23.4225 22.4146C22.5332 22.4146 21.6459 22.3939 20.7585 22.4278C20.4966 22.4372 20.2422 22.5955 19.9822 22.6859C20.133 22.8932 20.2441 23.1494 20.4382 23.3001C21.7646 24.3401 23.106 25.3575 24.4437 26.3843C25.3405 27.072 25.414 27.3019 25.0729 28.3588C24.5435 30.0036 23.999 31.6446 23.4866 33.2931C23.415 33.523 23.4866 33.7962 23.4922 34.0486C23.7372 33.9789 24.0216 33.9676 24.2176 33.8282C25.6457 32.8108 27.0531 31.7652 28.4699 30.7327C29.3592 30.0865 29.8 30.0865 30.6836 30.7308C32.027 31.7086 33.359 32.7034 34.7155 33.6643C34.9887 33.8583 35.3429 33.9356 35.6594 34.0675C35.6425 33.734 35.6933 33.3798 35.5972 33.0708C35.1149 31.507 34.5931 29.9546 34.0862 28.3984C33.7528 27.3678 33.8677 27.0136 34.7588 26.3617C36.1926 25.3123 37.632 24.2742 39.0601 23.2172C39.2448 23.0797 39.3691 22.8593 39.5198 22.6784C39.2843 22.5898 39.0488 22.4278 38.8133 22.4259C37.1045 22.4033 35.3957 22.4146 33.6887 22.4146C32.4754 22.4146 32.1231 22.1603 31.7519 21.0148C31.247 19.4567 30.7552 17.8967 30.2334 16.3442C30.1392 16.0654 29.93 15.8261 29.7718 15.568C29.6022 15.8336 29.3723 16.0786 29.2744 16.3687C28.7431 17.9419 28.2476 19.5264 27.7351 21.1033C27.3922 22.1565 27.0437 22.4109 25.9509 22.4127C25.1087 22.4146 24.2647 22.4127 23.4225 22.4127V22.4146Z" fill="black"/>
<path d="M23.4206 22.4146C24.2628 22.4146 25.1068 22.4165 25.949 22.4146C27.0418 22.4108 27.3903 22.1583 27.7332 21.1052C28.2457 19.5263 28.7412 17.9418 29.2725 16.3705C29.3705 16.0804 29.6003 15.8355 29.7699 15.5698C29.9262 15.8279 30.1373 16.0672 30.2315 16.3461C30.7533 17.8985 31.2451 19.4585 31.75 21.0166C32.1212 22.1621 32.4716 22.4165 33.6868 22.4165C35.3956 22.4165 37.1045 22.407 38.8114 22.4278C39.0488 22.4315 39.2824 22.5917 39.5179 22.6802C39.3653 22.8611 39.2429 23.0815 39.0582 23.2191C37.6301 24.276 36.1907 25.3141 34.757 26.3635C33.8658 27.0154 33.7509 27.3696 34.0843 28.4002C34.5893 29.9564 35.1112 31.5089 35.5954 33.0726C35.6914 33.3816 35.6406 33.7358 35.6575 34.0693C35.341 33.9374 34.9868 33.8602 34.7136 33.6661C33.3571 32.7053 32.0251 31.7105 30.6818 30.7327C29.7981 30.0883 29.3573 30.0883 28.468 30.7345C27.0493 31.7651 25.6419 32.8108 24.2157 33.83C24.0216 33.9695 23.7353 33.9789 23.4903 34.0505C23.4847 33.798 23.4131 33.5248 23.4847 33.295C23.9971 31.6445 24.5416 30.0054 25.0711 28.3606C25.4121 27.3037 25.3367 27.0757 24.4418 26.3862C23.106 25.3593 21.7627 24.342 20.4363 23.302C20.2422 23.1494 20.1311 22.895 19.9803 22.6878C20.2385 22.5973 20.4947 22.4391 20.7566 22.4297C21.644 22.3976 22.5332 22.4165 23.4206 22.4165V22.4146Z" fill="#22B573"/>
</g>
<defs>
<clipPath id="clip0_512_3371">
<rect width="59.34" height="70" fill="white"/>
</clipPath>
</defs>
</svg>
