<svg width="68" height="70" viewBox="0 0 68 70" fill="none" xmlns="http://www.w3.org/2000/svg">
<path d="M25.2805 70C24.1129 69.8632 22.9435 69.7466 21.7796 69.5862C17.604 69.0101 13.6338 67.8471 10.0911 65.4536C6.97026 63.3445 4.74241 60.4935 3.24565 57.0627C1.16875 52.3013 0.495844 47.2737 0.61042 42.1221C0.648611 40.4177 0.792285 38.7133 0.925047 37.0107C1.01962 35.7875 1.27059 35.4922 2.48 35.3554C9.11628 34.608 15.6507 34.8669 21.9487 37.4099C27.6429 39.7104 31.3876 43.8539 33.4481 49.6034C33.7227 50.3672 33.9555 51.1455 34.2719 52.1135C34.3992 51.7034 34.4756 51.4627 34.5484 51.2203C35.8596 46.8453 38.0075 43.0099 41.6884 40.1898C44.6838 37.8966 48.1174 36.5877 51.7711 35.8148C56.0467 34.9107 60.3624 34.8086 64.6999 35.2005C65.2419 35.2497 65.7802 35.3372 66.3203 35.3864C67.0714 35.4539 67.4697 35.875 67.5515 36.6041C67.6661 37.6213 67.8098 38.6403 67.8607 39.6612C68.0826 44.0471 67.9062 48.4057 66.7877 52.6804C65.5056 57.5804 63.2668 61.8935 59.1002 64.976C56.2977 67.0505 53.1514 68.3593 49.7523 69.0192C47.7991 69.3984 45.8113 69.5953 43.8399 69.876C43.6398 69.9052 43.4452 69.9562 43.247 69.9963H38.3457C37.6546 69.9179 36.9545 69.8869 36.2743 69.7539C34.2192 69.3546 32.2041 69.7885 30.1781 69.9963H25.2769L25.2805 70ZM26.0243 58.9075C26.0789 58.7544 26.1171 58.6961 26.1171 58.6395C26.1207 53.4224 26.1244 48.2052 26.1171 42.9898C26.1171 42.8276 26.0607 42.6052 25.9479 42.5104C24.6221 41.3966 23.1709 40.4924 21.4813 39.787V40.589C21.4813 44.439 21.5613 48.2909 21.4431 52.1372C21.394 53.725 21.7669 54.8953 23.0054 55.9106C24.082 56.7929 24.995 57.8739 26.0243 58.9093V58.9075ZM42.4068 58.8036C42.4632 58.8182 42.5177 58.8328 42.5741 58.8455C43.9181 57.4911 45.2548 56.1276 46.6152 54.7877C46.9316 54.476 47.0626 54.1643 47.0607 53.7177C47.0462 49.2989 47.0516 44.8784 47.0516 40.4596V39.787C45.5203 40.425 44.2036 41.2416 42.9524 42.1859C42.5468 42.4922 42.3959 42.8075 42.3977 43.3198C42.4177 48.2635 42.4104 53.2073 42.4104 58.151V58.8036H42.4068ZM24.453 60.6685C24.2039 60.395 24.0638 60.2291 23.9129 60.076C22.7126 58.8674 21.4959 57.6734 20.3137 56.4466C19.9828 56.1039 19.6445 55.9854 19.1807 55.9872C14.8287 56.0018 10.4748 55.9963 6.12277 55.9963H5.36075C6.00456 57.544 6.81931 58.8656 7.7632 60.1179C8.06328 60.5172 8.37972 60.6849 8.8944 60.683C13.8139 60.6612 18.7333 60.6703 23.6528 60.6703H24.4548L24.453 60.6685ZM63.1504 56.0565C62.9813 56.0273 62.894 56 62.8048 56C58.2255 55.9963 53.6461 55.9909 49.0667 56.0109C48.8139 56.0109 48.5102 56.1859 48.3192 56.3718C47.2281 57.4328 46.1678 58.5265 45.0875 59.5966C44.7747 59.9065 44.4237 60.1763 43.9799 60.5573C44.2927 60.6356 44.3528 60.663 44.4146 60.663C49.5832 60.6648 54.7518 60.6685 59.9205 60.6557C60.1187 60.6557 60.3806 60.5573 60.5024 60.4114C61.5845 59.119 62.4575 57.6916 63.1522 56.0565H63.1504ZM32.9461 65.851C32.9825 65.3606 33.0334 65.0471 33.0243 64.7354C32.9407 62.1432 32.9807 59.5382 32.7224 56.9625C32.3569 53.313 31.3748 49.813 29.4671 46.6338C29.1979 46.1854 28.8887 45.7625 28.5559 45.2648C28.485 45.438 28.4541 45.4781 28.4541 45.5164C28.4504 50.6643 28.4468 55.814 28.4541 60.9619C28.4541 61.1479 28.5177 61.3867 28.6414 61.5125C30.0217 62.9252 31.4185 64.3198 32.9461 65.8528V65.851ZM35.6978 65.7416C36.9927 64.4401 38.2766 63.1257 39.5897 61.8442C39.9407 61.5015 40.0971 61.1606 40.0953 60.6575C40.0753 55.783 40.0844 50.9067 40.0844 46.0323V45.3833C40.0116 45.3742 39.9389 45.3651 39.8679 45.356C35.7178 51.5429 35.2613 58.5265 35.6996 65.7435L35.6978 65.7416ZM10.8858 63.0364C14.1121 66.2156 25.8879 68.7494 31.2311 67.4151C29.889 66.0716 28.5941 64.7408 27.2537 63.4575C26.9955 63.2096 26.5608 63.0218 26.208 63.02C21.3322 62.9908 16.4564 63 11.5806 63.0018C11.366 63.0018 11.1514 63.0218 10.8876 63.0346L10.8858 63.0364ZM37.32 67.3823C37.3527 67.4388 37.3855 67.4935 37.4164 67.55C39.3405 67.55 41.2683 67.6174 43.1888 67.5354C46.7843 67.3841 50.2979 66.7625 53.6443 65.3679C55.0574 64.7791 56.4068 64.0773 57.7926 63.0018H56.8651C52.5804 63.0018 48.292 63.0875 44.0108 62.9599C42.325 62.9088 41.0901 63.3299 40.028 64.6442C39.2241 65.6395 38.2275 66.4763 37.3182 67.3841L37.32 67.3823ZM14.5231 37.7617C14.5231 40.3356 14.6286 42.7547 14.4868 45.1573C14.3922 46.7541 14.8214 47.9135 16.0545 48.9271C17.1293 49.8112 18.0459 50.8867 19.1225 51.9677V38.8172C17.6221 38.4726 16.1272 38.1299 14.5231 37.7635V37.7617ZM49.4177 38.8117V51.9659C50.8817 50.4929 52.2676 49.1221 53.6134 47.7166C53.8316 47.4888 53.9825 47.0968 53.988 46.776C54.0226 44.7945 54.0044 42.813 54.0044 40.8315V37.7672C52.413 38.1299 50.9054 38.4726 49.4159 38.8117H49.4177ZM3.32386 48.9817C3.67122 50.4474 4.00403 51.7653 4.28593 53.0961C4.38231 53.5536 4.59873 53.6648 5.02976 53.663C8.9526 53.6502 12.8773 53.6557 16.8001 53.6521C16.982 53.6521 17.1638 53.6156 17.4748 53.581C15.949 52.0588 14.5432 50.6369 13.1064 49.2461C12.9264 49.0711 12.5845 48.9945 12.3171 48.9927C10.162 48.9726 8.00872 48.9817 5.85361 48.9817C5.06431 48.9817 4.27501 48.9817 3.32386 48.9817ZM65.1837 49.0911C65.0091 49.031 64.9472 48.9909 64.8854 48.9909C61.9137 48.9854 58.942 48.9799 55.9703 48.9909C55.7921 48.9909 55.5702 49.0911 55.4411 49.2205C54.0371 50.6133 52.6476 52.0205 51.2564 53.426C51.22 53.4625 51.2255 53.5409 51.2 53.6539C52.0711 53.6539 52.9077 53.6539 53.7443 53.6539C56.9888 53.6539 60.2333 53.6612 63.4759 53.6393C63.7124 53.6393 64.1125 53.4734 64.1561 53.3093C64.5344 51.913 64.849 50.4984 65.1818 49.0911H65.1837ZM4.89699 37.4554C7.33945 39.9109 9.75826 42.3445 12.1662 44.7672V37.4554H4.89699ZM56.3504 44.7271C58.7529 42.3153 61.1753 39.8836 63.5851 37.4646H56.3504V44.7271ZM3.05106 39.2638V46.5828H10.3239C7.92142 44.1638 5.52261 41.7502 3.05106 39.2638ZM58.2055 46.5955H65.4892V39.2638C63.0158 41.7539 60.617 44.1674 58.2055 46.5955Z" fill="#22B573"/>
<path d="M35.6269 0C36.6708 0.189583 37.7384 0.295312 38.755 0.583333C46.1078 2.65963 50.7763 7.45026 52.4386 14.9151C54.5955 24.6094 48.4193 34.3018 38.7404 36.7609C28.7233 39.3057 18.5879 33.1497 16.2073 22.8247C14.6287 15.9779 16.5474 9.97864 21.5869 5.08047C24.6167 2.13099 28.3123 0.525 32.5152 0.10026C32.6461 0.0875 32.7734 0.0346354 32.9044 0C33.8119 0 34.7194 0 35.6269 0ZM26.1208 4.65755C26.4518 4.65755 26.6645 4.65755 26.8792 4.65755C28.5123 4.65755 30.1455 4.64114 31.7786 4.66302C33.6827 4.68854 35.154 5.92812 35.365 7.64896C35.6287 9.81458 34.172 11.5828 31.9932 11.632C29.7254 11.6849 27.4557 11.6375 25.1878 11.6575C24.3312 11.6648 23.8002 12.1643 23.822 12.857C23.842 13.5333 24.3494 13.9562 25.1787 13.9818C26.0626 14.0109 26.9537 13.969 27.8267 14.0729C29.8345 14.3135 31.1821 16.3898 30.6583 18.3513C30.2109 20.0338 28.8815 20.9872 26.921 20.9945C24.2657 21.0055 21.6123 20.9982 18.9571 20.9982C18.7188 20.9982 18.4788 20.9982 18.1951 20.9982C18.7607 24.5656 20.2338 27.5516 22.6671 30.0544C22.8181 30.2094 23.0927 30.3206 23.3109 30.3206C27.6448 30.3351 31.9768 30.3351 36.3107 30.3279C37.1909 30.3279 37.7111 29.8867 37.7293 29.1867C37.7474 28.4539 37.22 28.0219 36.2998 28C35.4396 27.9799 34.5684 28.0273 33.7209 27.9107C31.604 27.619 30.3128 25.4734 30.9657 23.4299C31.4694 21.8513 32.737 21.0036 34.6466 21C39.5916 20.9927 44.5383 20.9982 49.4832 20.9982C49.7488 20.9982 50.0161 20.9982 50.3598 20.9982C50.4126 20.1924 50.4617 19.4596 50.5144 18.6575C49.5669 18.6575 48.7303 18.6703 47.8956 18.6557C46.0242 18.6229 45.0093 17.7297 44.7384 15.8703C44.6656 15.3763 44.4256 15.1484 43.9254 15.163C43.3816 15.1776 42.8342 15.1885 42.2923 15.1539C40.0153 15.0081 38.5058 13.0047 39.0241 10.8336C39.3788 9.34791 40.6555 8.25052 42.1941 8.2013C43.6326 8.15573 45.0748 8.19219 46.5879 8.19219C42.0558 2.29323 32.6534 0.432031 26.1208 4.65755ZM49.7633 23.3971C49.6542 23.3734 49.5887 23.3443 49.5232 23.3443C44.4856 23.3406 39.4497 23.3388 34.412 23.3461C34.172 23.3461 33.9083 23.4026 33.6973 23.5138C33.2208 23.7672 33.0589 24.2029 33.159 24.7279C33.2826 25.3732 33.75 25.6284 34.3356 25.6575C35.1959 25.6995 36.0616 25.6503 36.92 25.7068C38.7968 25.8307 40.2445 27.6154 40.028 29.4838C39.8025 31.4234 38.3912 32.6539 36.3416 32.663C33.1881 32.6758 30.0345 32.6667 26.881 32.6667C26.6646 32.6667 26.4499 32.6667 26.1244 32.6667C34.4229 37.9568 46.6698 33.8661 49.7615 23.3971H49.7633ZM18.0496 18.6521C21.1795 18.6521 24.2166 18.6667 27.2538 18.6411C27.9976 18.6357 28.4286 18.1526 28.4286 17.4945C28.4286 16.8419 28.0013 16.3862 27.252 16.3406C26.3936 16.2896 25.5279 16.3406 24.6695 16.2786C22.9145 16.1547 21.5796 14.731 21.4941 12.9482C21.4123 11.2565 22.6781 9.6888 24.3694 9.40989C24.7477 9.34791 25.1351 9.32239 25.5188 9.32239C27.6284 9.31328 29.7363 9.32604 31.8459 9.31146C32.5934 9.30599 33.0444 8.87396 33.0717 8.21771C33.1008 7.56875 32.6679 7.09661 31.9514 7.00182C31.8404 6.98724 31.7259 6.98906 31.6113 6.98906C28.8669 6.98906 26.1226 6.97812 23.3801 7.00547C23.1091 7.00729 22.7744 7.17318 22.5798 7.37187C21.2413 8.72448 20.1919 10.2867 19.4263 12.0312C18.5133 14.1112 18.0041 16.2805 18.0496 18.6521ZM50.278 16.3023C50.1198 14.618 49.3559 12.25 48.4921 10.85C48.3884 10.6823 48.1156 10.5273 47.9174 10.5237C46.106 10.5 44.2928 10.5 42.4796 10.5182C41.7558 10.5255 41.272 10.9849 41.2411 11.6174C41.2083 12.2628 41.7048 12.7768 42.4505 12.8315C42.8342 12.8607 43.2198 12.8406 43.6053 12.8406C45.7332 12.8424 46.6389 13.6081 47.0626 15.6953C47.1081 15.9232 47.3863 16.2622 47.5755 16.275C48.4702 16.337 49.3723 16.3023 50.2762 16.3023H50.278Z" fill="black"/>
<path d="M8.66156 16.3752V18.6101H6.4137V16.3752H8.66156Z" fill="black"/>
<path d="M13.2919 18.6138H11.0586V16.3716H13.2919V18.6138Z" fill="black"/>
<path d="M55.2119 18.6138V16.3716H57.4416V18.6138H55.2119Z" fill="black"/>
<path d="M62.112 16.3733V18.6137H59.8605V16.3733H62.112Z" fill="black"/>
<path d="M6.41748 27.9527V25.7251H8.65988V27.9527H6.41748Z" fill="black"/>
<path d="M59.8513 27.9436V25.7324H62.1028V27.9436H59.8513Z" fill="black"/>
<path d="M8.66163 30.3789V32.612H6.42468V30.3789H8.66163Z" fill="black"/>
<path d="M59.8641 32.6211V30.3899H62.0993V32.6211H59.8641Z" fill="black"/>
<path d="M6.4137 23.2951V21.0457H8.64519V23.2951H6.4137Z" fill="black"/>
<path d="M62.1211 21.0383V23.275H59.8768V21.0383H62.1211Z" fill="black"/>
</svg>
